<svg xmlns="http://www.w3.org/2000/svg" xmlns:xlink="http://www.w3.org/1999/xlink" width="173" zoomAndPan="magnify" viewBox="0 0 129.75 32.249999" height="43" preserveAspectRatio="xMidYMid meet" version="1.0"><defs><g/><clipPath id="20a8b4dbe8"><path d="M 29.804688 9.910156 L 40.007812 9.910156 L 40.007812 20.113281 L 29.804688 20.113281 Z M 29.804688 9.910156 " clip-rule="nonzero"/></clipPath><clipPath id="11304184c4"><path d="M 33.101562 9.910156 L 36.714844 9.910156 C 37.589844 9.910156 38.425781 10.257812 39.042969 10.875 C 39.660156 11.492188 40.007812 12.332031 40.007812 13.207031 L 40.007812 16.820312 C 40.007812 17.691406 39.660156 18.53125 39.042969 19.148438 C 38.425781 19.765625 37.589844 20.113281 36.714844 20.113281 L 33.101562 20.113281 C 32.226562 20.113281 31.390625 19.765625 30.769531 19.148438 C 30.152344 18.53125 29.804688 17.691406 29.804688 16.820312 L 29.804688 13.207031 C 29.804688 12.332031 30.152344 11.492188 30.769531 10.875 C 31.390625 10.257812 32.226562 9.910156 33.101562 9.910156 Z M 33.101562 9.910156 " clip-rule="nonzero"/></clipPath><clipPath id="943e6f821c"><path d="M 30.820312 11.953125 L 33 11.953125 L 33 17.816406 L 30.820312 17.816406 Z M 30.820312 11.953125 " clip-rule="nonzero"/></clipPath><clipPath id="3df583c5aa"><path d="M 37 11.953125 L 38.664062 11.953125 L 38.664062 17.816406 L 37 17.816406 Z M 37 11.953125 " clip-rule="nonzero"/></clipPath></defs><g clip-path="url(#20a8b4dbe8)"><g clip-path="url(#11304184c4)"><path fill="#2f80ed" d="M 29.804688 9.910156 L 40.007812 9.910156 L 40.007812 20.113281 L 29.804688 20.113281 Z M 29.804688 9.910156 " fill-opacity="1" fill-rule="nonzero"/></g></g><g clip-path="url(#943e6f821c)"><path fill="#efefef" d="M 32.519531 12.636719 L 32.6875 12.636719 L 32.6875 11.957031 L 32.519531 11.957031 C 31.957031 11.957031 31.5 12.414062 31.5 12.976562 L 31.5 14.164062 C 31.5 14.269531 31.449219 14.371094 31.363281 14.433594 L 30.957031 14.738281 C 30.875 14.800781 30.824219 14.894531 30.820312 14.996094 C 30.816406 15.097656 30.859375 15.199219 30.933594 15.265625 L 31.386719 15.667969 C 31.457031 15.730469 31.5 15.824219 31.5 15.917969 L 31.5 17.046875 C 31.5 17.609375 31.957031 18.066406 32.519531 18.066406 L 32.6875 18.066406 L 32.6875 17.386719 L 32.519531 17.386719 C 32.332031 17.386719 32.179688 17.234375 32.179688 17.046875 L 32.179688 15.917969 C 32.179688 15.628906 32.054688 15.351562 31.835938 15.160156 L 31.695312 15.035156 L 31.773438 14.976562 C 32.027344 14.785156 32.179688 14.484375 32.179688 14.164062 L 32.179688 12.976562 C 32.179688 12.789062 32.332031 12.636719 32.519531 12.636719 Z M 32.519531 12.636719 " fill-opacity="1" fill-rule="evenodd"/></g><g clip-path="url(#3df583c5aa)"><path fill="#efefef" d="M 37.324219 12.636719 L 37.152344 12.636719 L 37.152344 11.957031 L 37.324219 11.957031 C 37.886719 11.957031 38.339844 12.414062 38.339844 12.976562 L 38.339844 14.164062 C 38.339844 14.269531 38.390625 14.371094 38.476562 14.433594 L 38.882812 14.738281 C 38.964844 14.800781 39.015625 14.894531 39.019531 14.996094 C 39.023438 15.097656 38.980469 15.199219 38.90625 15.265625 L 38.453125 15.667969 C 38.382812 15.730469 38.339844 15.824219 38.339844 15.917969 L 38.339844 17.046875 C 38.339844 17.609375 37.886719 18.066406 37.324219 18.066406 L 37.152344 18.066406 L 37.152344 17.386719 L 37.324219 17.386719 C 37.511719 17.386719 37.660156 17.234375 37.660156 17.046875 L 37.660156 15.917969 C 37.660156 15.628906 37.785156 15.351562 38.003906 15.160156 L 38.144531 15.035156 L 38.070312 14.976562 C 37.8125 14.785156 37.660156 14.484375 37.660156 14.164062 L 37.660156 12.976562 C 37.660156 12.789062 37.511719 12.636719 37.324219 12.636719 Z M 37.324219 12.636719 " fill-opacity="1" fill-rule="evenodd"/></g><g fill="#2f80ed" fill-opacity="1"><g transform="translate(41.613139, 17.67116)"><g><path d="M 3.484375 -4.578125 L 1.484375 -4.578125 L 1.484375 -3.078125 L 3.03125 -3.078125 L 3.03125 -2.359375 L 1.484375 -2.359375 L 1.484375 0 L 0.484375 0 L 0.484375 -4.859375 C 0.484375 -4.859375 0.472656 -4.890625 0.453125 -4.953125 C 0.441406 -5.023438 0.425781 -5.097656 0.40625 -5.171875 C 0.394531 -5.242188 0.390625 -5.285156 0.390625 -5.296875 L 3.484375 -5.296875 Z M 3.484375 -4.578125 "/></g></g></g><g fill="#2f80ed" fill-opacity="1"><g transform="translate(45.186263, 17.67116)"><g><path d="M 1.46875 0 L 0.484375 0 L 0.484375 -4.859375 C 0.484375 -4.859375 0.472656 -4.890625 0.453125 -4.953125 C 0.429688 -5.023438 0.410156 -5.097656 0.390625 -5.171875 C 0.378906 -5.242188 0.375 -5.285156 0.375 -5.296875 L 1.46875 -5.296875 Z M 1.46875 0 "/></g></g></g><g fill="#2f80ed" fill-opacity="1"><g transform="translate(47.008982, 17.67116)"><g><path d="M 4.703125 0.03125 L 3.921875 0.03125 L 1.546875 -3.59375 C 1.378906 -3.851562 1.273438 -4.015625 1.234375 -4.078125 C 1.265625 -3.765625 1.28125 -3.601562 1.28125 -3.59375 L 1.28125 0 L 0.484375 0 L 0.484375 -4.84375 C 0.484375 -4.851562 0.472656 -4.890625 0.453125 -4.953125 C 0.429688 -5.023438 0.410156 -5.097656 0.390625 -5.171875 C 0.378906 -5.242188 0.375 -5.28125 0.375 -5.28125 L 1.5625 -5.28125 L 3.640625 -2.125 C 3.710938 -2.007812 3.8125 -1.847656 3.9375 -1.640625 C 3.914062 -2.003906 3.90625 -2.191406 3.90625 -2.203125 L 3.90625 -5.28125 L 4.703125 -5.28125 Z M 4.703125 0.03125 "/></g></g></g><g fill="#2f80ed" fill-opacity="1"><g transform="translate(52.057655, 17.67116)"><g><path d="M 1.46875 0 L 0.484375 0 L 0.484375 -4.859375 C 0.484375 -4.859375 0.472656 -4.890625 0.453125 -4.953125 C 0.429688 -5.023438 0.410156 -5.097656 0.390625 -5.171875 C 0.378906 -5.242188 0.375 -5.285156 0.375 -5.296875 L 1.46875 -5.296875 Z M 1.46875 0 "/></g></g></g><g fill="#2f80ed" fill-opacity="1"><g transform="translate(53.880374, 17.67116)"><g><path d="M 4.421875 -0.453125 C 4.117188 -0.265625 3.835938 -0.125 3.578125 -0.03125 C 3.316406 0.0507812 3.015625 0.09375 2.671875 0.09375 C 1.859375 0.09375 1.234375 -0.160156 0.796875 -0.671875 C 0.359375 -1.191406 0.140625 -1.863281 0.140625 -2.6875 C 0.140625 -3.46875 0.367188 -4.113281 0.828125 -4.625 C 1.285156 -5.132812 1.90625 -5.390625 2.6875 -5.390625 C 2.976562 -5.390625 3.285156 -5.347656 3.609375 -5.265625 C 3.941406 -5.179688 4.207031 -5.054688 4.40625 -4.890625 L 3.875 -4.21875 C 3.75 -4.363281 3.578125 -4.476562 3.359375 -4.5625 C 3.140625 -4.644531 2.925781 -4.6875 2.71875 -4.6875 C 2.363281 -4.6875 2.066406 -4.585938 1.828125 -4.390625 C 1.597656 -4.191406 1.4375 -3.945312 1.34375 -3.65625 C 1.257812 -3.375 1.21875 -3.054688 1.21875 -2.703125 C 1.21875 -2.472656 1.25 -2.238281 1.3125 -2 C 1.375 -1.757812 1.460938 -1.53125 1.578125 -1.3125 C 1.691406 -1.101562 1.847656 -0.929688 2.046875 -0.796875 C 2.253906 -0.660156 2.484375 -0.59375 2.734375 -0.59375 C 3.179688 -0.59375 3.59375 -0.773438 3.96875 -1.140625 Z M 4.421875 -0.453125 "/></g></g></g><g fill="#2f80ed" fill-opacity="1"><g transform="translate(58.27807, 17.67116)"><g><path d="M 4.3125 0 L 3.15625 0 L 1.46875 -2.6875 L 1.46875 0 L 0.484375 0 L 0.484375 -4.859375 C 0.484375 -4.859375 0.472656 -4.890625 0.453125 -4.953125 C 0.429688 -5.023438 0.410156 -5.097656 0.390625 -5.171875 C 0.378906 -5.242188 0.375 -5.285156 0.375 -5.296875 L 1.46875 -5.296875 L 1.46875 -2.9375 L 3.234375 -5.296875 L 4.171875 -5.296875 L 2.4375 -2.984375 Z M 4.3125 0 "/></g></g></g><g fill="#ffffff" fill-opacity="1"><g transform="translate(33.426284, 17.069024)"><g><path d="M 2.9375 -3.84375 L 1.25 -3.84375 L 1.25 -2.59375 L 2.546875 -2.59375 L 2.546875 -1.984375 L 1.25 -1.984375 L 1.25 0 L 0.40625 0 L 0.40625 -4.078125 C 0.40625 -4.078125 0.394531 -4.101562 0.375 -4.15625 C 0.363281 -4.21875 0.351562 -4.28125 0.34375 -4.34375 C 0.332031 -4.40625 0.328125 -4.441406 0.328125 -4.453125 L 2.9375 -4.453125 Z M 2.9375 -3.84375 "/></g></g></g></svg>