<svg xmlns="http://www.w3.org/2000/svg" xmlns:xlink="http://www.w3.org/1999/xlink" width="173" zoomAndPan="magnify" viewBox="0 0 129.75 32.249999" height="43" preserveAspectRatio="xMidYMid meet" version="1.0"><defs><g/><clipPath id="07d5d3ce05"><path d="M 4.503906 1.898438 L 32.222656 1.898438 L 32.222656 29.617188 L 4.503906 29.617188 Z M 4.503906 1.898438 " clip-rule="nonzero"/></clipPath><clipPath id="b4f896d7b5"><path d="M 7.796875 1.898438 L 28.929688 1.898438 C 30.75 1.898438 32.222656 3.375 32.222656 5.191406 L 32.222656 26.324219 C 32.222656 28.144531 30.75 29.617188 28.929688 29.617188 L 7.796875 29.617188 C 5.980469 29.617188 4.503906 28.144531 4.503906 26.324219 L 4.503906 5.191406 C 4.503906 3.375 5.980469 1.898438 7.796875 1.898438 Z M 7.796875 1.898438 " clip-rule="nonzero"/></clipPath><clipPath id="91e146d73c"><path d="M 7.261719 7.449219 L 13 7.449219 L 13 24.304688 L 7.261719 24.304688 Z M 7.261719 7.449219 " clip-rule="nonzero"/></clipPath><clipPath id="3bcb3a2d8d"><path d="M 24 7.449219 L 29.480469 7.449219 L 29.480469 24.304688 L 24 24.304688 Z M 24 7.449219 " clip-rule="nonzero"/></clipPath></defs><g clip-path="url(#07d5d3ce05)"><g clip-path="url(#b4f896d7b5)"><path fill="#2f80ed" d="M 4.503906 1.898438 L 32.222656 1.898438 L 32.222656 29.617188 L 4.503906 29.617188 Z M 4.503906 1.898438 " fill-opacity="1" fill-rule="nonzero"/></g></g><g clip-path="url(#91e146d73c)"><path fill="#efefef" d="M 11.878906 9.292969 L 12.339844 9.292969 L 12.339844 7.449219 L 11.878906 7.449219 C 10.351562 7.449219 9.109375 8.6875 9.109375 10.21875 L 9.109375 13.449219 C 9.109375 13.738281 8.972656 14.011719 8.742188 14.1875 L 7.632812 15.019531 C 7.410156 15.183594 7.277344 15.441406 7.265625 15.71875 C 7.253906 15.996094 7.367188 16.261719 7.574219 16.445312 L 8.800781 17.535156 C 8.996094 17.710938 9.109375 17.960938 9.109375 18.226562 L 9.109375 21.296875 C 9.109375 22.824219 10.351562 24.066406 11.878906 24.066406 L 12.339844 24.066406 L 12.339844 22.21875 L 11.878906 22.21875 C 11.371094 22.21875 10.957031 21.804688 10.957031 21.296875 L 10.957031 18.226562 C 10.957031 17.433594 10.617188 16.683594 10.027344 16.15625 L 9.644531 15.816406 L 9.847656 15.664062 C 10.546875 15.140625 10.957031 14.320312 10.957031 13.449219 L 10.957031 10.21875 C 10.957031 9.707031 11.371094 9.292969 11.878906 9.292969 Z M 11.878906 9.292969 " fill-opacity="1" fill-rule="evenodd"/></g><g clip-path="url(#3bcb3a2d8d)"><path fill="#efefef" d="M 24.933594 9.292969 L 24.472656 9.292969 L 24.472656 7.449219 L 24.933594 7.449219 C 26.464844 7.449219 27.703125 8.6875 27.703125 10.21875 L 27.703125 13.449219 C 27.703125 13.738281 27.839844 14.011719 28.074219 14.1875 L 29.179688 15.019531 C 29.402344 15.183594 29.539062 15.441406 29.550781 15.71875 C 29.5625 15.996094 29.449219 16.261719 29.242188 16.445312 L 28.015625 17.535156 C 27.816406 17.710938 27.703125 17.960938 27.703125 18.226562 L 27.703125 21.296875 C 27.703125 22.824219 26.464844 24.066406 24.933594 24.066406 L 24.472656 24.066406 L 24.472656 22.21875 L 24.933594 22.21875 C 25.445312 22.21875 25.859375 21.804688 25.859375 21.296875 L 25.859375 18.226562 C 25.859375 17.433594 26.195312 16.683594 26.789062 16.15625 L 27.167969 15.816406 L 26.964844 15.664062 C 26.269531 15.140625 25.859375 14.320312 25.859375 13.449219 L 25.859375 10.21875 C 25.859375 9.707031 25.445312 9.292969 24.933594 9.292969 Z M 24.933594 9.292969 " fill-opacity="1" fill-rule="evenodd"/></g><g fill="#2f80ed" fill-opacity="1"><g transform="translate(36.583314, 22.982073)"><g><path d="M 9.46875 -12.4375 L 4.046875 -12.4375 L 4.046875 -8.375 L 8.234375 -8.375 L 8.234375 -6.421875 L 4.046875 -6.421875 L 4.046875 0 L 1.3125 0 L 1.3125 -13.1875 C 1.3125 -13.195312 1.285156 -13.296875 1.234375 -13.484375 C 1.191406 -13.671875 1.148438 -13.859375 1.109375 -14.046875 C 1.066406 -14.242188 1.046875 -14.359375 1.046875 -14.390625 L 9.46875 -14.390625 Z M 9.46875 -12.4375 "/></g></g></g><g fill="#2f80ed" fill-opacity="1"><g transform="translate(46.291787, 22.982073)"><g><path d="M 4.015625 0 L 1.296875 0 L 1.296875 -13.1875 C 1.296875 -13.195312 1.269531 -13.296875 1.21875 -13.484375 C 1.175781 -13.671875 1.128906 -13.859375 1.078125 -14.046875 C 1.035156 -14.242188 1.015625 -14.359375 1.015625 -14.390625 L 4.015625 -14.390625 Z M 4.015625 0 "/></g></g></g><g fill="#2f80ed" fill-opacity="1"><g transform="translate(51.244266, 22.982073)"><g><path d="M 12.78125 0.09375 L 10.65625 0.09375 L 4.1875 -9.765625 C 3.738281 -10.460938 3.460938 -10.90625 3.359375 -11.09375 C 3.441406 -10.21875 3.484375 -9.773438 3.484375 -9.765625 L 3.484375 0 L 1.296875 0 L 1.296875 -13.171875 C 1.296875 -13.179688 1.269531 -13.273438 1.21875 -13.453125 C 1.175781 -13.640625 1.128906 -13.832031 1.078125 -14.03125 C 1.035156 -14.226562 1.015625 -14.34375 1.015625 -14.375 L 4.25 -14.375 L 9.90625 -5.765625 C 10.101562 -5.472656 10.375 -5.039062 10.71875 -4.46875 C 10.632812 -5.445312 10.59375 -5.945312 10.59375 -5.96875 L 10.59375 -14.375 L 12.78125 -14.375 Z M 12.78125 0.09375 "/></g></g></g><g fill="#2f80ed" fill-opacity="1"><g transform="translate(64.961928, 22.982073)"><g><path d="M 4.015625 0 L 1.296875 0 L 1.296875 -13.1875 C 1.296875 -13.195312 1.269531 -13.296875 1.21875 -13.484375 C 1.175781 -13.671875 1.128906 -13.859375 1.078125 -14.046875 C 1.035156 -14.242188 1.015625 -14.359375 1.015625 -14.390625 L 4.015625 -14.390625 Z M 4.015625 0 "/></g></g></g><g fill="#2f80ed" fill-opacity="1"><g transform="translate(69.914407, 22.982073)"><g><path d="M 12.03125 -1.21875 C 11.207031 -0.707031 10.4375 -0.335938 9.71875 -0.109375 C 9.007812 0.117188 8.191406 0.234375 7.265625 0.234375 C 5.054688 0.234375 3.359375 -0.457031 2.171875 -1.84375 C 0.984375 -3.238281 0.390625 -5.054688 0.390625 -7.296875 C 0.390625 -9.429688 1.007812 -11.191406 2.25 -12.578125 C 3.5 -13.960938 5.179688 -14.65625 7.296875 -14.65625 C 8.109375 -14.65625 8.957031 -14.535156 9.84375 -14.296875 C 10.738281 -14.066406 11.441406 -13.722656 11.953125 -13.265625 L 10.53125 -11.453125 C 10.175781 -11.847656 9.703125 -12.160156 9.109375 -12.390625 C 8.523438 -12.628906 7.953125 -12.75 7.390625 -12.75 C 6.421875 -12.75 5.617188 -12.472656 4.984375 -11.921875 C 4.347656 -11.378906 3.910156 -10.71875 3.671875 -9.9375 C 3.441406 -9.164062 3.328125 -8.300781 3.328125 -7.34375 C 3.328125 -6.71875 3.40625 -6.082031 3.5625 -5.4375 C 3.726562 -4.789062 3.96875 -4.175781 4.28125 -3.59375 C 4.59375 -3.007812 5.023438 -2.53125 5.578125 -2.15625 C 6.128906 -1.789062 6.75 -1.609375 7.4375 -1.609375 C 8.65625 -1.609375 9.773438 -2.101562 10.796875 -3.09375 Z M 12.03125 -1.21875 "/></g></g></g><g fill="#2f80ed" fill-opacity="1"><g transform="translate(81.86331, 22.982073)"><g><path d="M 11.734375 0 L 8.59375 0 L 4.015625 -7.296875 L 4.015625 0 L 1.296875 0 L 1.296875 -13.1875 C 1.296875 -13.195312 1.269531 -13.296875 1.21875 -13.484375 C 1.175781 -13.671875 1.128906 -13.859375 1.078125 -14.046875 C 1.035156 -14.242188 1.015625 -14.359375 1.015625 -14.390625 L 4.015625 -14.390625 L 4.015625 -7.953125 L 8.8125 -14.390625 L 11.328125 -14.390625 L 6.640625 -8.09375 Z M 11.734375 0 "/></g></g></g><g fill="#ffffff" fill-opacity="1"><g transform="translate(14.338949, 21.346022)"><g><path d="M 7.953125 -10.453125 L 3.40625 -10.453125 L 3.40625 -7.03125 L 6.921875 -7.03125 L 6.921875 -5.40625 L 3.40625 -5.40625 L 3.40625 0 L 1.109375 0 L 1.109375 -11.078125 C 1.109375 -11.085938 1.085938 -11.171875 1.046875 -11.328125 C 1.003906 -11.484375 0.960938 -11.644531 0.921875 -11.8125 C 0.890625 -11.976562 0.875 -12.070312 0.875 -12.09375 L 7.953125 -12.09375 Z M 7.953125 -10.453125 "/></g></g></g></svg>