<svg xmlns="http://www.w3.org/2000/svg" xmlns:xlink="http://www.w3.org/1999/xlink" width="173" zoomAndPan="magnify" viewBox="0 0 129.75 32.249999" height="43" preserveAspectRatio="xMidYMid meet" version="1.0"><defs><g/><clipPath id="8f2f170f98"><path d="M 2.929688 0.851562 L 32.746094 0.851562 L 32.746094 30.667969 L 2.929688 30.667969 Z M 2.929688 0.851562 " clip-rule="nonzero"/></clipPath><clipPath id="65b3e8fbbd"><path d="M 6.222656 0.851562 L 29.449219 0.851562 C 30.324219 0.851562 31.160156 1.199219 31.78125 1.816406 C 32.398438 2.433594 32.746094 3.269531 32.746094 4.144531 L 32.746094 27.371094 C 32.746094 28.246094 32.398438 29.085938 31.78125 29.703125 C 31.160156 30.320312 30.324219 30.667969 29.449219 30.667969 L 6.222656 30.667969 C 5.347656 30.667969 4.511719 30.320312 3.894531 29.703125 C 3.273438 29.085938 2.929688 28.246094 2.929688 27.371094 L 2.929688 4.144531 C 2.929688 3.269531 3.273438 2.433594 3.894531 1.816406 C 4.511719 1.199219 5.347656 0.851562 6.222656 0.851562 Z M 6.222656 0.851562 " clip-rule="nonzero"/></clipPath><clipPath id="c7bbb326b1"><path d="M 4.316406 7.105469 L 10 7.105469 L 10 24.699219 L 4.316406 24.699219 Z M 4.316406 7.105469 " clip-rule="nonzero"/></clipPath><clipPath id="ae3fd2b930"><path d="M 24 6.820312 L 29.890625 6.820312 L 29.890625 24.410156 L 24 24.410156 Z M 24 6.820312 " clip-rule="nonzero"/></clipPath></defs><g clip-path="url(#8f2f170f98)"><g clip-path="url(#65b3e8fbbd)"><path fill="#2f80ed" d="M 2.929688 0.851562 L 32.746094 0.851562 L 32.746094 30.667969 L 2.929688 30.667969 Z M 2.929688 0.851562 " fill-opacity="1" fill-rule="nonzero"/></g></g><g clip-path="url(#c7bbb326b1)"><path fill="#efefef" d="M 9.285156 9.09375 L 9.78125 9.09375 L 9.78125 7.109375 L 9.285156 7.109375 C 7.636719 7.109375 6.304688 8.441406 6.304688 10.085938 L 6.304688 13.5625 C 6.304688 13.875 6.15625 14.171875 5.90625 14.359375 L 4.714844 15.25 C 4.476562 15.429688 4.332031 15.707031 4.320312 16.003906 C 4.304688 16.300781 4.429688 16.589844 4.652344 16.789062 L 5.96875 17.960938 C 6.183594 18.148438 6.304688 18.417969 6.304688 18.703125 L 6.304688 22.003906 C 6.304688 23.648438 7.636719 24.984375 9.285156 24.984375 L 9.78125 24.984375 L 9.78125 22.996094 L 9.285156 22.996094 C 8.734375 22.996094 8.289062 22.554688 8.289062 22.003906 L 8.289062 18.703125 C 8.289062 17.851562 7.925781 17.042969 7.289062 16.476562 L 6.878906 16.109375 L 7.097656 15.945312 C 7.847656 15.382812 8.289062 14.5 8.289062 13.5625 L 8.289062 10.085938 C 8.289062 9.539062 8.734375 9.09375 9.285156 9.09375 Z M 9.285156 9.09375 " fill-opacity="1" fill-rule="evenodd"/></g><g clip-path="url(#ae3fd2b930)"><path fill="#efefef" d="M 24.902344 8.804688 L 24.40625 8.804688 L 24.40625 6.820312 L 24.902344 6.820312 C 26.546875 6.820312 27.882812 8.152344 27.882812 9.800781 L 27.882812 13.273438 C 27.882812 13.585938 28.027344 13.882812 28.277344 14.070312 L 29.46875 14.964844 C 29.707031 15.140625 29.855469 15.417969 29.867188 15.714844 C 29.878906 16.015625 29.757812 16.300781 29.535156 16.5 L 28.214844 17.671875 C 28.003906 17.859375 27.882812 18.132812 27.882812 18.414062 L 27.882812 21.714844 C 27.882812 23.363281 26.546875 24.695312 24.902344 24.695312 L 24.40625 24.695312 L 24.40625 22.710938 L 24.902344 22.710938 C 25.449219 22.710938 25.894531 22.265625 25.894531 21.714844 L 25.894531 18.414062 C 25.894531 17.5625 26.257812 16.753906 26.894531 16.1875 L 27.304688 15.824219 L 27.085938 15.65625 C 26.335938 15.09375 25.894531 14.210938 25.894531 13.273438 L 25.894531 9.800781 C 25.894531 9.25 25.449219 8.804688 24.902344 8.804688 Z M 24.902344 8.804688 " fill-opacity="1" fill-rule="evenodd"/></g><g fill="#2f80ed" fill-opacity="1"><g transform="translate(37.433899, 23.52845)"><g><path d="M 10.1875 -13.375 L 4.359375 -13.375 L 4.359375 -9 L 8.859375 -9 L 8.859375 -6.90625 L 4.359375 -6.90625 L 4.359375 0 L 1.421875 0 L 1.421875 -14.1875 C 1.421875 -14.195312 1.394531 -14.300781 1.34375 -14.5 C 1.289062 -14.695312 1.238281 -14.898438 1.1875 -15.109375 C 1.144531 -15.328125 1.125 -15.445312 1.125 -15.46875 L 10.1875 -15.46875 Z M 10.1875 -13.375 "/></g></g></g><g fill="#2f80ed" fill-opacity="1"><g transform="translate(47.876707, 23.52845)"><g><path d="M 4.3125 0 L 1.390625 0 L 1.390625 -14.1875 C 1.390625 -14.195312 1.363281 -14.300781 1.3125 -14.5 C 1.269531 -14.695312 1.222656 -14.898438 1.171875 -15.109375 C 1.117188 -15.328125 1.09375 -15.445312 1.09375 -15.46875 L 4.3125 -15.46875 Z M 4.3125 0 "/></g></g></g><g fill="#2f80ed" fill-opacity="1"><g transform="translate(53.203784, 23.52845)"><g><path d="M 13.734375 0.109375 L 11.453125 0.109375 L 4.5 -10.5 C 4.019531 -11.25 3.722656 -11.722656 3.609375 -11.921875 C 3.691406 -10.992188 3.734375 -10.519531 3.734375 -10.5 L 3.734375 0 L 1.390625 0 L 1.390625 -14.171875 C 1.390625 -14.179688 1.363281 -14.285156 1.3125 -14.484375 C 1.269531 -14.679688 1.222656 -14.882812 1.171875 -15.09375 C 1.117188 -15.300781 1.09375 -15.421875 1.09375 -15.453125 L 4.5625 -15.453125 L 10.65625 -6.1875 C 10.863281 -5.882812 11.148438 -5.421875 11.515625 -4.796875 C 11.429688 -5.859375 11.390625 -6.398438 11.390625 -6.421875 L 11.390625 -15.453125 L 13.734375 -15.453125 Z M 13.734375 0.109375 "/></g></g></g><g fill="#2f80ed" fill-opacity="1"><g transform="translate(67.95903, 23.52845)"><g><path d="M 4.3125 0 L 1.390625 0 L 1.390625 -14.1875 C 1.390625 -14.195312 1.363281 -14.300781 1.3125 -14.5 C 1.269531 -14.695312 1.222656 -14.898438 1.171875 -15.109375 C 1.117188 -15.328125 1.09375 -15.445312 1.09375 -15.46875 L 4.3125 -15.46875 Z M 4.3125 0 "/></g></g></g><g fill="#2f80ed" fill-opacity="1"><g transform="translate(73.286106, 23.52845)"><g><path d="M 12.9375 -1.3125 C 12.050781 -0.757812 11.222656 -0.359375 10.453125 -0.109375 C 9.679688 0.128906 8.804688 0.25 7.828125 0.25 C 5.441406 0.25 3.609375 -0.492188 2.328125 -1.984375 C 1.054688 -3.484375 0.421875 -5.4375 0.421875 -7.84375 C 0.421875 -10.144531 1.085938 -12.039062 2.421875 -13.53125 C 3.765625 -15.019531 5.570312 -15.765625 7.84375 -15.765625 C 8.71875 -15.765625 9.632812 -15.640625 10.59375 -15.390625 C 11.550781 -15.140625 12.304688 -14.765625 12.859375 -14.265625 L 11.328125 -12.328125 C 10.953125 -12.742188 10.445312 -13.078125 9.8125 -13.328125 C 9.175781 -13.585938 8.554688 -13.71875 7.953125 -13.71875 C 6.910156 -13.71875 6.046875 -13.421875 5.359375 -12.828125 C 4.671875 -12.234375 4.203125 -11.519531 3.953125 -10.6875 C 3.703125 -9.863281 3.578125 -8.9375 3.578125 -7.90625 C 3.578125 -7.226562 3.660156 -6.539062 3.828125 -5.84375 C 4.003906 -5.144531 4.257812 -4.484375 4.59375 -3.859375 C 4.9375 -3.234375 5.40625 -2.722656 6 -2.328125 C 6.59375 -1.929688 7.253906 -1.734375 7.984375 -1.734375 C 9.296875 -1.734375 10.503906 -2.257812 11.609375 -3.3125 Z M 12.9375 -1.3125 "/></g></g></g><g fill="#2f80ed" fill-opacity="1"><g transform="translate(86.138807, 23.52845)"><g><path d="M 12.625 0 L 9.234375 0 L 4.3125 -7.84375 L 4.3125 0 L 1.390625 0 L 1.390625 -14.1875 C 1.390625 -14.195312 1.363281 -14.300781 1.3125 -14.5 C 1.269531 -14.695312 1.222656 -14.898438 1.171875 -15.109375 C 1.117188 -15.328125 1.09375 -15.445312 1.09375 -15.46875 L 4.3125 -15.46875 L 4.3125 -8.5625 L 9.46875 -15.46875 L 12.171875 -15.46875 L 7.140625 -8.703125 Z M 12.625 0 "/></g></g></g><g fill="#ffffff" fill-opacity="1"><g transform="translate(13.507, 21.768652)"><g><path d="M 8.5625 -11.25 L 3.65625 -11.25 L 3.65625 -7.5625 L 7.4375 -7.5625 L 7.4375 -5.8125 L 3.65625 -5.8125 L 3.65625 0 L 1.1875 0 L 1.1875 -11.921875 C 1.1875 -11.929688 1.164062 -12.019531 1.125 -12.1875 C 1.082031 -12.351562 1.039062 -12.523438 1 -12.703125 C 0.957031 -12.878906 0.9375 -12.976562 0.9375 -13 L 8.5625 -13 Z M 8.5625 -11.25 "/></g></g></g></svg>