<svg xmlns="http://www.w3.org/2000/svg" xmlns:xlink="http://www.w3.org/1999/xlink" width="45" zoomAndPan="magnify" viewBox="0 0 33.75 33.749999" height="45" preserveAspectRatio="xMidYMid meet" version="1.0"><defs><g/><clipPath id="a3c4cbf8f7"><path d="M 0.945312 0.894531 L 32.609375 0.894531 L 32.609375 32.554688 L 0.945312 32.554688 Z M 0.945312 0.894531 " clip-rule="nonzero"/></clipPath><clipPath id="dd722461f3"><path d="M 2.6875 0.894531 L 30.867188 0.894531 C 31.828125 0.894531 32.609375 1.671875 32.609375 2.636719 L 32.609375 30.8125 C 32.609375 31.777344 31.828125 32.554688 30.867188 32.554688 L 2.6875 32.554688 C 1.726562 32.554688 0.945312 31.777344 0.945312 30.8125 L 0.945312 2.636719 C 0.945312 1.671875 1.726562 0.894531 2.6875 0.894531 Z M 2.6875 0.894531 " clip-rule="nonzero"/></clipPath><clipPath id="64fda59055"><path d="M 4.09375 7.230469 L 10 7.230469 L 10 26.585938 L 4.09375 26.585938 Z M 4.09375 7.230469 " clip-rule="nonzero"/></clipPath><clipPath id="ee0aa1e52a"><path d="M 23 7.230469 L 29.476562 7.230469 L 29.476562 26.585938 L 23 26.585938 Z M 23 7.230469 " clip-rule="nonzero"/></clipPath></defs><g clip-path="url(#a3c4cbf8f7)"><g clip-path="url(#dd722461f3)"><path fill="#2f80ed" d="M 0.945312 0.894531 L 32.609375 0.894531 L 32.609375 32.554688 L 0.945312 32.554688 Z M 0.945312 0.894531 " fill-opacity="1" fill-rule="nonzero"/></g></g><g clip-path="url(#64fda59055)"><path fill="#efefef" d="M 9.371094 9.339844 L 9.898438 9.339844 L 9.898438 7.230469 L 9.371094 7.230469 C 7.625 7.230469 6.207031 8.648438 6.207031 10.394531 L 6.207031 14.085938 C 6.207031 14.417969 6.050781 14.730469 5.785156 14.929688 L 4.519531 15.878906 C 4.265625 16.070312 4.113281 16.363281 4.097656 16.679688 C 4.085938 16.996094 4.214844 17.300781 4.453125 17.511719 L 5.855469 18.757812 C 6.078125 18.957031 6.207031 19.242188 6.207031 19.546875 L 6.207031 23.050781 C 6.207031 24.800781 7.625 26.214844 9.371094 26.214844 L 9.898438 26.214844 L 9.898438 24.105469 L 9.371094 24.105469 C 8.789062 24.105469 8.316406 23.632812 8.316406 23.050781 L 8.316406 19.546875 C 8.316406 18.640625 7.929688 17.78125 7.253906 17.179688 L 6.820312 16.792969 L 7.050781 16.617188 C 7.847656 16.019531 8.316406 15.082031 8.316406 14.085938 L 8.316406 10.394531 C 8.316406 9.8125 8.789062 9.339844 9.371094 9.339844 Z M 9.371094 9.339844 " fill-opacity="1" fill-rule="evenodd"/></g><g clip-path="url(#ee0aa1e52a)"><path fill="#efefef" d="M 24.285156 9.339844 L 23.757812 9.339844 L 23.757812 7.230469 L 24.285156 7.230469 C 26.03125 7.230469 27.449219 8.648438 27.449219 10.394531 L 27.449219 14.085938 C 27.449219 14.417969 27.605469 14.730469 27.871094 14.929688 L 29.136719 15.878906 C 29.390625 16.070312 29.542969 16.363281 29.558594 16.679688 C 29.570312 16.996094 29.441406 17.300781 29.203125 17.511719 L 27.804688 18.757812 C 27.578125 18.957031 27.449219 19.242188 27.449219 19.546875 L 27.449219 23.050781 C 27.449219 24.800781 26.03125 26.214844 24.285156 26.214844 L 23.757812 26.214844 L 23.757812 24.105469 L 24.285156 24.105469 C 24.867188 24.105469 25.339844 23.632812 25.339844 23.050781 L 25.339844 19.546875 C 25.339844 18.640625 25.726562 17.78125 26.402344 17.179688 L 26.839844 16.792969 L 26.605469 16.617188 C 25.808594 16.019531 25.339844 15.082031 25.339844 14.085938 L 25.339844 10.394531 C 25.339844 9.8125 24.867188 9.339844 24.285156 9.339844 Z M 24.285156 9.339844 " fill-opacity="1" fill-rule="evenodd"/></g><g fill="#ffffff" fill-opacity="1"><g transform="translate(12.179796, 23.106974)"><g><path d="M 9.09375 -11.9375 L 3.890625 -11.9375 L 3.890625 -8.03125 L 7.90625 -8.03125 L 7.90625 -6.171875 L 3.890625 -6.171875 L 3.890625 0 L 1.265625 0 L 1.265625 -12.65625 C 1.265625 -12.664062 1.238281 -12.757812 1.1875 -12.9375 C 1.144531 -13.113281 1.101562 -13.296875 1.0625 -13.484375 C 1.019531 -13.671875 1 -13.78125 1 -13.8125 L 9.09375 -13.8125 Z M 9.09375 -11.9375 "/></g></g></g></svg>